<svg width="409" height="401" viewBox="0 0 409 401" fill="none" xmlns="http://www.w3.org/2000/svg">
<path fill-rule="evenodd" clip-rule="evenodd" d="M201.801 8.88862L196.596 17.7772L196.426 10.1978C196.333 6.02911 196.239 2.09137 196.219 1.44698L196.183 0.275616H193.687H191.192L191.351 11.507C191.439 17.6841 191.579 23.6418 191.663 24.7462L191.816 26.7541L194.477 26.6755L197.137 26.5969L202.248 18.0528L207.359 9.50872L207.53 15.5723C207.625 18.9072 207.718 22.7212 207.738 24.0475L207.772 26.4591H210.301H212.828L212.646 18.5591C212.546 14.2143 212.464 8.26106 212.464 5.32957V0H209.735H207.006L201.801 8.88862ZM227.898 1.47923C225.249 2.19252 222.076 4.82934 220.756 7.41515C219.051 10.7518 218.521 16.6593 219.613 20.137C220.381 22.5853 222.008 24.7748 224.087 26.1617C226.593 27.8336 228.241 28.2506 232.339 28.2506C235.695 28.2506 235.849 28.2241 237.655 27.3359C242.263 25.0692 244.733 20.3796 244.746 13.8742C244.758 7.40302 241.348 2.94137 235.304 1.51809C233.229 1.02942 229.638 1.01068 227.898 1.47923ZM178.383 1.92931C176.545 2.25812 175.915 2.47668 175.956 2.77131C175.986 2.99043 176.831 7.86581 177.832 13.6061C178.834 19.346 179.616 24.0693 179.57 24.1023C179.423 24.2092 169.587 25.896 169.518 25.8266C169.481 25.7897 168.626 21.0488 167.618 15.2912C166.61 9.53384 165.744 4.68574 165.692 4.5179C165.626 4.29933 164.905 4.32744 163.161 4.61629C161.82 4.83843 160.643 5.09972 160.546 5.19728C160.353 5.3916 164.789 30.7502 165.064 31.025C165.158 31.1184 169.29 30.4795 174.246 29.6053C181.647 28.2997 183.299 28.0828 183.49 28.3912C183.618 28.5976 183.877 29.8035 184.066 31.0704C184.255 32.3375 184.493 33.4256 184.595 33.4887C184.696 33.5516 185.7 33.4488 186.825 33.26C188.759 32.9353 188.865 32.8798 188.79 32.2374C188.745 31.8637 188.364 29.6356 187.942 27.286L187.174 23.0139L186.072 23.082L184.971 23.1501L183.095 12.4708C182.063 6.59712 181.139 1.7226 181.043 1.63854C180.946 1.5542 179.749 1.68511 178.383 1.92931ZM253.473 6.72009C252.687 9.48199 247.266 29.9137 247.181 30.4321C247.109 30.8797 247.466 31.0605 249.536 31.6242C250.877 31.9896 252.034 32.23 252.106 32.1586C252.178 32.0869 252.862 29.6899 253.627 26.832C254.393 23.9742 255.107 21.5405 255.215 21.4239C255.382 21.2448 264.821 23.5665 265.142 23.8656C265.203 23.9215 264.596 26.3968 263.795 29.3658C262.97 32.4223 262.444 34.8599 262.581 34.985C262.85 35.2284 267.393 36.4756 267.491 36.3328C267.537 36.2653 273.335 14.6311 274.171 11.4056C274.308 10.8777 274.104 10.7625 272.05 10.2091C270.799 9.872 269.636 9.54264 269.465 9.47704C269.278 9.40512 268.958 10.1024 268.663 11.2247C266.85 18.1361 266.473 19.2931 266.033 19.2873C265.559 19.2813 256.619 16.9074 256.456 16.7442C256.403 16.6919 256.962 14.4221 257.696 11.7007C258.432 8.97929 258.955 6.72693 258.86 6.69583C258.764 6.66467 257.603 6.33997 256.28 5.97426L253.875 5.30945L253.473 6.72009ZM228.794 6.50455C227.203 7.29585 226.13 8.63119 225.269 10.8868C224.858 11.9642 224.744 12.9865 224.744 15.5723C224.744 19.3565 225.093 20.3531 227.033 22.1038C228.396 23.3334 229.799 23.8226 231.919 23.8069C236.592 23.7721 239.563 19.2451 239.175 12.7489C239.03 10.3339 238.436 8.9203 236.978 7.52237C235.042 5.66692 231.389 5.21246 228.794 6.50455ZM141.061 11.3827L138.508 12.2431L138.496 13.2188C138.488 13.7551 138.135 20.0855 137.71 27.286C137.284 34.4864 136.971 40.4215 137.015 40.4753C137.058 40.5288 138.262 40.1837 139.691 39.7083L142.288 38.8439L142.472 35.6333C142.573 33.8674 142.685 32.4116 142.721 32.3984C145.393 31.394 152.693 29.2257 152.837 29.3933C152.949 29.5226 153.81 30.5851 154.752 31.754C155.693 32.9228 156.566 33.9429 156.693 34.0209C156.819 34.0986 158.126 33.7591 159.598 33.2663L162.274 32.37L153.122 21.4217C148.089 15.4 143.89 10.4844 143.792 10.4977C143.694 10.5109 142.465 10.9091 141.061 11.3827ZM277.915 26.528C274.994 33.0844 272.609 38.5253 272.614 38.6196C272.624 38.8368 277.281 40.9188 277.417 40.7666C277.472 40.7043 278.541 38.3384 279.792 35.509L282.068 30.3649L283.209 30.8593C285.624 31.9064 291.528 34.5256 291.593 34.5787C291.63 34.6094 290.669 36.8454 289.457 39.5473C288.243 42.2494 287.22 44.6412 287.18 44.8623C287.133 45.1282 287.903 45.6158 289.455 46.3032C290.745 46.8748 291.826 47.3205 291.857 47.294C291.889 47.2676 294.333 41.8164 297.288 35.1804L302.661 23.1151L301.439 22.5823C300.767 22.2891 299.651 21.8026 298.96 21.5013L297.702 20.9532L297.325 21.8459C295.725 25.6229 293.584 30.1832 293.378 30.2519C293.124 30.3365 284.494 26.5647 284.175 26.2292C284.079 26.1281 284.917 24.0058 286.037 21.5127C287.158 19.0194 288.075 16.9008 288.075 16.8046C288.075 16.6604 283.631 14.6077 283.319 14.6077C283.267 14.6077 280.835 19.9717 277.915 26.528ZM143.169 17.8461C143.067 18.5346 142.803 27.5624 142.885 27.5621C143.061 27.5613 149.405 25.5711 149.499 25.4873C149.602 25.3941 143.494 17.6394 143.316 17.6394C143.252 17.6394 143.186 17.7326 143.169 17.8461ZM120.514 19.7514C117.998 20.9187 118.414 19.3631 117.25 31.9521C116.796 36.868 116.384 40.9303 116.336 40.9794C116.286 41.0282 114.545 37.5951 112.465 33.3503C110.386 29.1053 108.629 25.6323 108.561 25.6323C108.231 25.6323 104.29 27.7087 104.29 27.8827C104.29 28.0712 115.556 51.3082 115.733 51.4851C115.778 51.5308 116.876 51.0428 118.172 50.4006C120.243 49.3745 120.546 49.131 120.671 48.3885C120.75 47.9237 121.217 43.4181 121.709 38.3756C122.202 33.3333 122.685 29.3024 122.781 29.4181C122.878 29.5339 124.562 32.9438 126.524 36.9956C128.486 41.0474 130.219 44.3653 130.375 44.3684C131.062 44.3824 134.693 42.4162 134.569 42.0976C133.777 40.0561 123.158 18.7449 122.937 18.7535C122.774 18.7601 121.684 19.209 120.514 19.7514ZM311.443 29.5612C310.65 30.6251 297.373 49.6019 297.089 50.0776C296.866 50.4496 307.372 57.9392 309.84 59.1684C313.652 61.0663 317.669 59.7116 320.008 55.7387C320.685 54.588 320.775 54.1575 320.775 52.0912C320.775 48.3104 319.735 46.9181 313.858 42.8291C311.775 41.3801 310.508 40.3267 310.621 40.1374C310.723 39.9665 312.022 38.0901 313.509 35.9679C314.995 33.8456 316.244 32.0064 316.286 31.8808C316.326 31.7551 315.404 30.9803 314.235 30.1593L312.109 28.6665L311.443 29.5612ZM90.6055 37.7497C89.1709 38.4688 78.9268 46.1455 78.5159 46.8095C78.4297 46.9489 81.9779 51.6983 86.4012 57.3632C90.824 63.0285 94.475 67.7054 94.5145 67.7559C94.6193 67.8905 104.517 60.065 106.295 58.442C108.337 56.5783 109.093 54.8278 108.918 52.3775C108.601 47.9703 105.026 44.8722 101.178 45.6696C100.385 45.8335 99.702 45.9366 99.6601 45.8983C99.6177 45.86 99.7111 45.4934 99.8668 45.0836C100.303 43.9381 100.194 41.8757 99.632 40.6533C98.0527 37.2145 94.1669 35.9648 90.6055 37.7497ZM91.911 42.1891C91.553 42.3321 89.9384 43.4605 88.3233 44.6964C86.7083 45.9322 85.3465 46.9743 85.297 47.0124C85.1918 47.0923 88.8647 51.8157 89.0318 51.8157C89.2385 51.8157 94.2122 47.7629 94.8202 47.0992C96.2481 45.5397 96.1215 43.773 94.4898 42.4911C93.6784 41.8536 92.9595 41.7696 91.911 42.1891ZM325.072 54.0329C320.927 59.9518 317.581 64.8342 317.637 64.8823C318.803 65.8812 321.866 67.7868 322.033 67.6174C322.157 67.4914 325.603 62.6137 329.691 56.7785L337.124 46.169L335.041 44.7203C333.895 43.9235 332.879 43.2717 332.783 43.2717C332.688 43.2717 329.218 48.1145 325.072 54.0329ZM305.787 46.9752L303.816 49.8293L307.329 52.1996C309.26 53.503 311.222 54.6432 311.688 54.7331C312.879 54.9629 314.444 54.2355 315.111 53.1415C316.086 51.5451 315.734 50.2655 313.83 48.4826C312.963 47.6702 309.234 44.9637 308.057 44.2925C307.886 44.1947 306.912 45.346 305.787 46.9752ZM98.7707 50.3131C97.2223 51.0047 91.8391 55.1912 91.9905 55.586C92.0653 55.7796 93.0133 57.0611 94.0974 58.4344C95.4206 60.1097 96.1729 60.8518 96.3853 60.691C98.5122 59.077 102.075 56.1582 102.547 55.6431C103.979 54.0795 103.924 52.349 102.395 50.8863C101.429 49.9615 100.047 49.7432 98.7707 50.3131ZM352.135 53.952C351.847 54.5205 351.527 55.3781 351.423 55.8581C350.812 58.6874 353.993 62.2893 357.103 62.2893C358.213 62.2893 360.651 61.3608 360.651 60.9379C360.651 60.8285 360.29 60.3932 359.848 59.9708C359.087 59.2421 358.996 59.2216 358.047 59.5641C357.163 59.8828 356.935 59.8648 356.083 59.4067C354.389 58.4957 353.574 56.4846 354.329 55.077C354.579 54.6099 354.501 54.382 353.863 53.717C353.441 53.2775 352.998 52.9184 352.878 52.9184C352.758 52.9184 352.424 53.3836 352.135 53.952ZM335.332 62.853C330.134 67.8752 325.886 72.0665 325.894 72.1668C325.901 72.2672 326.683 73.1839 327.631 74.2037L329.354 76.0579L338.859 73.9973C344.086 72.8633 348.506 71.9357 348.679 71.9357C348.959 71.9357 344.199 76.7072 338.712 81.9269L336.781 83.7645L338.553 85.554L340.325 87.3435L345.452 82.4154C348.272 79.705 352.565 75.5661 354.994 73.2181L359.409 68.9493L357.477 67.0271L355.546 65.1053L346.025 67.2683C340.789 68.458 336.343 69.4364 336.145 69.4431C335.839 69.4531 341.881 63.4376 346.809 58.8254L348.284 57.4459L346.533 55.5836L344.783 53.7213L335.332 62.853ZM173.145 57.5958C173.042 57.7632 173.107 62.1433 173.292 67.3296C173.476 72.516 173.552 78.2475 173.461 80.0665C172.992 89.3718 169.776 93.7519 162.102 95.5385C160.344 95.9472 158.789 96.0523 154.468 96.0523C151.482 96.0523 149.061 96.0699 149.086 96.0922C149.347 96.3191 154.391 96.8272 159.569 97.1487C163.852 97.4146 166.45 97.7005 167.417 98.0121C171.936 99.4701 173.568 103.979 174.385 117.274C174.534 119.7 174.657 123.348 174.657 125.382C174.659 132.691 174.914 128.605 175.189 116.851C175.496 103.755 175.722 101.177 176.749 99.0419C177.991 96.4585 178.843 96.2083 187.49 95.8839C191.284 95.7417 195.382 95.5209 196.596 95.393C198.744 95.167 198.699 95.1599 194.94 95.1223C186.456 95.0386 181.384 93.553 178.238 90.2304C175.157 86.9767 174.704 84.8205 174.393 71.9357C174.197 63.811 173.792 57.8008 173.412 57.3784C173.369 57.3308 173.249 57.4283 173.145 57.5958ZM63.521 60.8718L61.6098 62.9781L67.5629 75.8962L73.516 88.8143L75.3758 86.7831C76.3985 85.6662 77.238 84.6278 77.2413 84.4761C77.2446 84.3248 76.6704 82.9981 75.9648 81.5287L74.6821 78.8564L78.1964 75.1893C80.1295 73.1724 81.855 71.4942 82.0312 71.4595C82.2074 71.4257 83.5934 71.939 85.1113 72.6012L87.8705 73.8051L89.0661 72.6635C89.7237 72.0356 90.6236 71.0714 91.0649 70.5205L91.8686 69.5183L85.7303 67.0219C82.354 65.6491 76.4062 63.2297 72.5123 61.6452L65.4322 58.765L63.521 60.8718ZM68.14 65.4336C68.14 65.571 72.2624 74.0463 72.509 74.4159C72.6337 74.6033 77.2465 69.8194 77.2465 69.503C77.2465 69.3641 75.3034 68.3975 72.9285 67.3549C67.7705 65.0897 68.14 65.2381 68.14 65.4336ZM28.621 117.239L28.5407 119.615L26.747 118.523C25.7604 117.923 24.8145 117.428 24.645 117.422C24.4756 117.417 24.0763 118.039 23.7579 118.804L23.1786 120.196L24.4364 120.735C25.1282 121.031 26.0243 121.352 26.4277 121.448C27.6587 121.741 27.6356 121.818 25.9258 123.101C25.0151 123.785 24.2121 124.438 24.1409 124.554C24.0697 124.668 24.5476 125.288 25.203 125.93L26.3943 127.099L27.7305 125.494C28.4654 124.611 29.1489 123.788 29.2493 123.665C29.3501 123.541 29.7808 124.44 30.2072 125.663C30.6333 126.886 31.0535 127.88 31.141 127.873C31.2285 127.865 31.9551 127.521 32.7556 127.107L34.2107 126.354L32.9626 124.495C32.276 123.472 31.7141 122.582 31.7141 122.517C31.7141 122.395 32.5343 122.246 34.8418 121.952L36.1755 121.781L35.9864 120.355C35.8824 119.57 35.7169 118.849 35.6183 118.751C35.5201 118.654 34.477 118.856 33.3009 119.2C32.1247 119.544 31.1644 119.748 31.167 119.653C31.1697 119.558 31.4123 118.554 31.7064 117.423C32.0006 116.292 32.215 115.34 32.183 115.308C32.151 115.276 31.3543 115.163 30.413 115.057L28.701 114.863L28.621 117.239ZM321.11 127.072C315.196 129.007 312.576 130.024 303.943 133.731C293.601 138.173 287.456 141.009 278.621 145.424C239.455 164.99 201.258 191.885 164.448 225.814C157.266 232.433 137.68 251.981 137.68 252.529C137.68 252.78 137.98 253.333 138.347 253.758C138.994 254.509 139.092 254.531 141.727 254.524C144.055 254.517 145.03 254.352 148.581 253.363C154.233 251.789 156.087 251.497 157.799 251.907L159.156 252.232L167.114 245.445L175.072 238.657L177.03 238.784C179.349 238.933 182.382 239.928 184.389 241.199C188.824 244.007 193.781 250.488 197.695 258.598C201.678 266.848 204.803 275.736 210.803 295.873C214.637 308.742 217.192 316.724 217.332 316.269C217.379 316.118 217.921 310.971 218.537 304.831C221.479 275.523 224.071 257.142 227.389 242.067C234.204 211.091 245.435 189.05 264.205 169.812C278.363 155.301 296.691 141.892 320.634 128.529C323.44 126.962 325.613 125.693 325.463 125.709C325.313 125.725 323.354 126.338 321.11 127.072ZM388.246 126.248C388.246 126.409 388.381 127.411 388.546 128.474C388.712 129.538 388.793 130.463 388.727 130.529C388.661 130.595 387.936 130.354 387.116 129.994C384.35 128.778 384.465 128.76 383.955 130.51C383.707 131.363 383.558 132.115 383.623 132.18C383.689 132.245 384.694 132.451 385.856 132.635C387.019 132.82 387.97 133.077 387.97 133.205C387.97 133.334 387.397 134.184 386.696 135.093L385.423 136.746L386.058 137.208C386.407 137.462 387.036 137.896 387.457 138.172L388.22 138.672L389.299 136.532L390.377 134.392L391.544 136.238C392.186 137.253 392.855 138.079 393.031 138.073C393.207 138.067 393.848 137.638 394.455 137.118L395.559 136.174L393.773 134.372C392.791 133.382 392.17 132.571 392.394 132.572C392.616 132.573 393.692 132.309 394.782 131.986L396.765 131.399L396.208 129.987C395.901 129.21 395.601 128.526 395.541 128.465C395.481 128.405 394.591 128.777 393.564 129.292C392.536 129.807 391.623 130.263 391.534 130.305C391.445 130.348 391.43 129.387 391.5 128.169L391.628 125.956H389.937C388.932 125.956 388.246 126.074 388.246 126.248ZM328.083 149.682C328.08 152.02 328.229 158.355 328.413 163.761C328.669 171.276 328.672 174.458 328.428 177.267C327.831 184.132 326.311 188.186 323.184 191.253C318.928 195.427 312.678 197.029 301.873 196.716C299.065 196.634 296.891 196.612 297.043 196.667C298.117 197.056 304.354 197.682 310.614 198.03C318.12 198.447 320.231 198.771 322.294 199.822C327.406 202.427 329.421 210.706 329.943 231.242C330.042 235.107 330.206 237.877 330.308 237.396C330.409 236.916 330.577 231.397 330.68 225.131C331.042 203.106 331.637 199.544 335.266 197.708C337.018 196.822 339.153 196.572 346.828 196.351L353.563 196.157L353.367 201.22C352.571 221.804 348.618 241.858 342.006 258.86C340.011 263.99 339.162 265.895 336.498 271.223C317.766 308.696 283.935 332.731 236.658 342.155C225.642 344.352 208.055 345.039 194.251 343.812C171.71 341.809 152.473 335.289 134.648 323.611C117.985 312.695 101.61 296.113 85.8213 274.167C84.5428 272.39 83.4572 270.974 83.4092 271.022C83.3615 271.07 83.6263 272.156 83.9977 273.436C86.0641 280.556 90.6997 289.242 96.7014 297.242C113.208 319.246 139.465 338.058 167.207 347.757C188.244 355.112 209.747 357.457 230.815 354.693C257.57 351.183 284.744 338.74 306.564 320.009C310.253 316.842 318.477 308.559 321.497 304.969C343.974 278.249 355.664 243.171 355.681 202.396L355.684 196.013L358.098 195.83C361.441 195.577 361.528 195.459 358.391 195.433L355.717 195.412L355.582 194.24C355.508 193.596 355.314 190.774 355.151 187.97C354.836 182.535 354.337 177.726 353.463 171.709C352.85 167.487 351.49 160.095 351.352 160.233C351.301 160.283 351.506 162.235 351.805 164.57C352.802 172.343 353.231 178.381 353.395 186.957L353.557 195.453L351.516 195.271C343.193 194.53 338.414 192.83 334.965 189.381C333.66 188.077 332.862 186.967 332.164 185.49C330.245 181.428 329.758 177.684 329.744 166.885C329.74 162.792 329.609 157.585 329.454 155.313C329.183 151.331 328.485 145.83 328.218 145.563C328.146 145.491 328.086 147.346 328.083 149.682ZM351.036 159.306C351.036 159.685 351.098 159.84 351.175 159.65C351.252 159.461 351.252 159.151 351.175 158.961C351.098 158.772 351.036 158.927 351.036 159.306ZM235.834 164.709C234.476 165.444 226.331 168.669 221.314 170.458C200.664 177.819 177.238 182.671 153.41 184.521C133.361 186.077 110.793 185.334 94.7697 182.587C93.2685 182.33 96.4019 183.466 108.567 187.591C129.517 194.695 134.387 196.539 141.958 200.237C148.37 203.369 153.572 206.854 157.135 210.406C159.521 212.784 162.43 216.535 162.857 217.783C162.934 218.008 164.585 216.597 167.137 214.124C184.784 197.024 210.818 178.271 233.367 166.417C235.378 165.36 237.024 164.443 237.024 164.381C237.024 164.173 236.618 164.285 235.834 164.709ZM403.655 191.089L403.749 195.035L393.721 195.366C388.206 195.548 383.289 195.695 382.796 195.692L381.899 195.687V198.457V201.226L385.28 201.066C391.095 200.79 403.784 200.366 403.863 200.445C403.905 200.486 404.027 202.223 404.135 204.305L404.332 208.09H406.542H408.753L408.568 202.095C408.466 198.798 408.304 194.086 408.206 191.622L408.029 187.143H405.795H403.561L403.655 191.089ZM7.05824 189.831C6.71304 193.481 5.8929 192.582 15.088 198.622C19.6034 201.588 23.4218 204.139 23.5735 204.291C23.8448 204.564 16.9195 204.447 9.73416 204.059L6.657 203.893L6.45807 206.279C6.3488 207.592 6.33665 208.743 6.43131 208.838C6.59491 209.001 32.582 210.016 32.7697 209.866C32.8188 209.826 32.9278 208.636 33.012 207.22L33.1646 204.645L24.8324 199.036C20.2497 195.951 16.5395 193.395 16.5875 193.356C16.6355 193.318 20.3711 193.411 24.8887 193.564C29.4063 193.716 33.1759 193.768 33.2659 193.678C33.3555 193.589 33.4952 192.454 33.5763 191.156L33.7237 188.797L32.236 188.79C31.4178 188.786 26.0295 188.602 20.2621 188.383C14.4947 188.162 9.20408 187.98 8.50507 187.976L7.23403 187.97L7.05824 189.831ZM0.255448 193.896C0.255448 194.841 0.358929 195.136 0.690626 195.136C0.929879 195.136 1.50359 195.513 1.96553 195.975C2.74041 196.748 2.7956 196.93 2.68025 198.32C2.54503 199.95 1.70752 201.199 0.750509 201.199C0.118025 201.199 -0.0834236 201.682 0.0299932 202.926L0.117471 203.883L1.44094 203.545C6.22819 202.324 6.89021 195.462 2.43935 193.195C1.85736 192.898 1.12801 192.656 0.818392 192.656C0.335196 192.656 0.255448 192.831 0.255448 193.896ZM381.498 213.12C381.423 213.461 380.861 217.887 380.247 222.955C379.456 229.491 379.22 232.224 379.436 232.357C379.777 232.567 383.325 232.941 383.483 232.783C383.538 232.728 383.974 229.475 384.452 225.554C384.929 221.633 385.348 218.382 385.383 218.33C385.475 218.195 392.164 219.077 392.334 219.247C392.412 219.325 392.124 222.242 391.696 225.729C391.267 229.217 390.974 232.129 391.046 232.201C391.196 232.35 395.191 232.943 395.296 232.831C395.334 232.79 395.706 229.905 396.122 226.418C396.537 222.932 396.954 219.997 397.046 219.898C397.139 219.798 398.456 219.862 399.973 220.04L402.731 220.364L402.64 221.324C402.59 221.852 402.213 225.013 401.803 228.348C400.947 235.308 400.719 234.574 403.846 234.927L405.511 235.114L406.701 225.441C407.356 220.121 407.849 215.726 407.796 215.675C407.689 215.571 382.841 212.5 382.105 212.5C381.841 212.5 381.574 212.772 381.498 213.12ZM19.8619 217.361C13.2672 218.184 7.829 218.9 7.77682 218.952C7.50666 219.222 8.32404 223.971 8.68833 224.248C8.91321 224.418 13.0611 226.341 17.9057 228.52C22.7501 230.699 26.6283 232.557 26.5234 232.649C26.4189 232.741 22.6245 233.262 18.092 233.806C13.5594 234.35 9.79516 234.851 9.72726 234.919C9.60694 235.039 10.1583 239.571 10.312 239.724C10.3937 239.806 35.7789 236.773 36.2881 236.621C36.5916 236.531 36.168 231.969 35.8016 231.38C35.7072 231.228 31.5806 229.243 26.6311 226.969C18.4733 223.222 17.7161 222.819 18.5329 222.656C19.0286 222.557 22.832 222.069 26.9852 221.571L34.536 220.668L34.3423 218.447C34.2355 217.225 34.0899 216.132 34.0186 216.016C33.802 215.666 32.3094 215.808 19.8619 217.361ZM152.582 224.322C151.595 224.591 149.298 225.338 147.476 225.983C138.422 229.189 129.721 229.744 116.432 227.961C114.383 227.686 112.671 227.49 112.626 227.525C112.449 227.667 116.562 230.53 121.123 233.44C128.881 238.388 130.096 239.95 130.026 244.885C130.004 246.401 129.806 248.447 129.586 249.432C129.365 250.418 129.203 251.246 129.227 251.273C129.251 251.3 130.172 250.11 131.275 248.628C133.957 245.025 138.9 239.795 145.269 233.823C148.153 231.119 151.692 227.76 153.134 226.357C156.053 223.517 156.018 223.386 152.582 224.322ZM378.787 234.454C378.709 234.582 378.31 235.958 377.901 237.513L377.156 240.339L380.788 244.336C383.622 247.454 384.321 248.371 383.967 248.506C383.718 248.602 381.389 249.377 378.792 250.227L374.07 251.775L373.296 254.669C372.87 256.261 372.521 257.653 372.519 257.763C372.518 257.874 375.957 256.79 380.161 255.356L387.806 252.749L388.468 253.364C388.832 253.703 391.128 256.181 393.57 258.872C396.012 261.563 398.091 263.764 398.191 263.764C398.29 263.764 398.716 262.466 399.138 260.879L399.903 257.994L396.551 254.492C394.708 252.565 393.296 250.901 393.414 250.793C393.531 250.684 395.552 250.013 397.904 249.302C400.257 248.59 402.318 247.863 402.485 247.686C402.934 247.211 404.256 241.991 403.927 241.991C403.774 241.991 400.543 242.996 396.748 244.223C392.953 245.452 389.753 246.351 389.637 246.222C389.521 246.093 387.217 243.507 384.517 240.475C381.817 237.443 379.455 234.795 379.268 234.591C379.082 234.388 378.865 234.325 378.787 234.454ZM34.7038 242.012C28.7526 247.261 26.747 249.546 26.747 251.075C26.747 251.773 26.7953 251.777 25.1856 250.952C24.2474 250.47 23.0393 250.177 21.128 249.968C19.631 249.805 18.1262 249.564 17.7837 249.434C16.9236 249.108 16.0336 247.905 15.8234 246.786C15.7265 246.271 15.5935 245.849 15.5278 245.849C14.767 245.849 11.8455 246.825 11.8455 247.08C11.8455 247.704 12.9338 250.582 13.5404 251.563C14.4268 252.995 16.2955 253.732 20.6164 254.354C22.7481 254.661 24.5518 255.07 24.9641 255.34C25.6206 255.77 26.4269 257.04 26.1708 257.241C26.1084 257.291 24.0703 257.856 21.6418 258.499C19.2134 259.14 16.8336 259.787 16.3532 259.937L15.4801 260.209L16.1559 262.731C16.5276 264.118 16.8585 265.271 16.8913 265.293C16.9777 265.35 42.2633 258.557 42.374 258.446C42.4722 258.348 41.2044 253.582 41.035 253.413C40.9572 253.336 32.3706 255.567 30.2654 256.212C29.8595 256.336 29.7825 256.178 29.7825 255.218C29.7825 254.212 29.9602 253.892 31.2815 252.513C32.106 251.652 34.1486 249.832 35.8206 248.467C37.4926 247.103 38.8671 245.779 38.8749 245.524C38.8903 245.015 37.6046 240.065 37.4046 239.865C37.3359 239.797 36.1203 240.762 34.7038 242.012ZM166.039 252.936C165.965 253.813 166.005 257.632 166.129 261.422C166.485 272.349 166.431 280.384 165.984 283.135C164.797 290.435 161.652 294.441 155.429 296.58C152.339 297.642 148.781 298.009 142.662 297.899C139.487 297.841 136.914 297.819 136.943 297.848C137.211 298.114 144.681 298.864 150.251 299.183C158.402 299.65 160.166 300.047 162.128 301.852C163.666 303.268 164.3 304.301 165.132 306.745C166.566 310.954 167.379 318.046 167.679 328.948C167.896 336.824 168.265 336.579 168.303 328.534C168.341 320.313 168.809 307.619 169.156 305.382C169.604 302.497 170.371 300.608 171.494 299.623C173.132 298.187 174.569 297.941 183.075 297.644C187.324 297.495 191.857 297.281 193.147 297.166C195.417 296.966 195.337 296.953 190.663 296.769C176.301 296.201 170.27 292.557 168.266 283.237C167.807 281.102 167.688 279 167.489 269.552C167.328 261.859 167.111 257.319 166.791 254.945C166.536 253.05 166.292 251.464 166.25 251.42C166.208 251.376 166.113 252.058 166.039 252.936ZM370.836 262.564C370.365 263.603 369.878 264.713 369.753 265.032C369.544 265.566 369.921 265.783 374.747 267.909C377.618 269.173 379.967 270.283 379.967 270.375C379.967 270.645 376.075 279.314 375.846 279.556C375.731 279.676 373.423 278.777 370.716 277.557C368.009 276.338 365.649 275.34 365.47 275.34C365.054 275.34 363.042 279.771 363.331 280.049C363.513 280.224 387.052 290.775 387.261 290.775C387.528 290.775 389.384 286.019 389.184 285.846C389.048 285.727 387.011 284.787 384.659 283.758C382.306 282.728 380.296 281.809 380.19 281.714C379.951 281.499 383.923 272.507 384.314 272.377C384.471 272.325 386.606 273.175 389.059 274.265C391.663 275.422 393.619 276.145 393.76 276C394.195 275.553 395.941 271.494 395.748 271.377C395.578 271.274 372.856 261.154 372.035 260.816C371.819 260.727 371.375 261.375 370.836 262.564ZM37.3588 268.204C37.47 269.627 37.6245 270.893 37.7015 271.018C37.7788 271.143 38.3293 271.163 38.9254 271.062C40.7146 270.76 42.6792 271.393 43.9764 272.692C46.7707 275.487 46.2594 279.492 42.7818 282.049C39.049 284.794 33.9941 286.019 31.5596 284.769C27.9093 282.895 26.8273 278.427 29.3561 275.671L30.2761 274.668L28.5882 272.489L26.9001 270.31L25.6032 271.719C23.7118 273.773 23.0793 275.645 23.2125 278.795C23.3047 280.972 23.4455 281.554 24.331 283.416C25.6534 286.197 27.6513 288.313 30.038 289.459C34.6854 291.692 42.0646 290.116 46.5999 285.922C51.0277 281.828 51.7086 275.725 48.3218 270.49C46.2067 267.222 43.9518 265.956 39.8851 265.753L37.156 265.616L37.3588 268.204ZM358.926 287.136C358.205 288.317 357.615 289.417 357.615 289.579C357.615 289.741 359.54 293.777 361.892 298.546C364.245 303.316 366.17 307.295 366.17 307.389C366.17 307.482 363.005 305.581 359.136 303.163C355.267 300.745 351.995 298.768 351.863 298.768C351.732 298.768 351.059 299.682 350.368 300.801L349.112 302.833L360.357 309.852L371.603 316.872L373.048 314.571L374.494 312.271L369.905 303.281C367.381 298.337 365.353 294.255 365.398 294.21C365.443 294.165 368.738 296.164 372.721 298.652C376.704 301.141 380.012 303.178 380.074 303.178C380.247 303.178 382.8 299.022 382.688 298.924C382.51 298.768 360.378 284.987 360.306 284.987C360.267 284.987 359.646 285.954 358.926 287.136ZM50.1887 298.295C45.264 301.371 41.1068 303.966 40.9506 304.062C40.7919 304.16 39.7673 302.783 38.627 300.939C37.4992 299.117 36.4443 297.697 36.2676 297.765C35.7422 297.966 32.8179 299.876 32.8179 300.018C32.8179 300.204 43.3208 317.025 43.6913 317.432C43.9276 317.692 44.4185 317.503 45.849 316.603L47.7014 315.437L45.9178 312.599C44.937 311.037 44.012 309.532 43.8625 309.253C43.6216 308.803 44.6456 308.089 52.8251 302.999C57.904 299.838 62.0616 297.164 62.0645 297.057C62.0712 296.782 59.4786 292.707 59.2953 292.705C59.212 292.704 55.1139 295.22 50.1887 298.295ZM196.256 296.754C196.525 296.823 196.898 296.819 197.084 296.743C197.271 296.668 197.052 296.611 196.596 296.616C196.141 296.622 195.988 296.684 196.256 296.754ZM343.825 309.3C342.905 310.39 342.187 311.366 342.227 311.469C342.267 311.571 344.038 313.109 346.163 314.886C351.351 319.225 350.951 318.776 350.253 319.473C349.281 320.444 347.365 320.232 340.651 318.412L337.07 317.441L335.907 318.724C333.707 321.151 332.982 322.184 333.377 322.329C333.58 322.404 335.856 322.973 338.437 323.594C343.912 324.912 346.802 325.213 348.236 324.613L349.205 324.207L349.11 325.206C349.034 325.997 349.364 326.885 350.693 329.476C351.616 331.276 352.372 332.984 352.372 333.273C352.372 333.884 351.676 335.335 351.028 336.077C350.604 336.562 350.656 336.658 351.951 337.799C352.705 338.464 353.42 339.007 353.538 339.007C353.969 339.007 356.236 335.62 356.526 334.541C356.974 332.882 356.633 331.606 354.69 327.672C353.719 325.705 352.924 323.798 352.924 323.434C352.924 322.73 353.455 321.367 353.727 321.37C353.817 321.371 355.733 322.921 357.986 324.815C360.238 326.709 362.185 328.258 362.311 328.258C362.566 328.258 365.618 324.667 365.618 324.367C365.618 324.263 363.848 322.699 361.685 320.891C359.523 319.084 354.995 315.29 351.624 312.461L345.495 307.317L343.825 309.3ZM70.2097 314.608C68.4595 314.992 47.1041 321.083 46.9247 321.25C46.8395 321.33 48.4727 323.366 50.0654 325.166C50.3154 325.449 51.7528 325.047 57.2322 323.165C61.0018 321.87 64.1133 320.843 64.1466 320.882C64.1795 320.922 62.7458 323.952 60.9613 327.616L57.7155 334.277L59.5072 336.435C60.4928 337.623 61.3846 338.627 61.4893 338.667C61.5941 338.707 63.5319 334.338 65.796 328.958C70.345 318.147 70.0374 318.612 72.6499 318.612C73.6417 318.612 73.9307 318.782 75.2511 320.143L76.7361 321.675L78.2355 320.396L79.7343 319.117L79.1244 318.244C76.3676 314.299 74.7092 313.623 70.2097 314.608ZM81.2737 328.178C79.7386 334.223 79.4677 336.475 80.0967 337.974L80.53 339.007H79.1444C78.0141 339.007 77.247 339.271 74.9844 340.441C71.6819 342.147 70.8554 342.227 69.1265 341.01L67.9 340.147L66.6306 341.63L65.3613 343.114L66.7963 344.247C70.3492 347.052 71.3129 347.046 77.3294 344.189C80.7252 342.576 80.9028 342.524 81.9398 342.834C82.5331 343.012 83.0797 343.257 83.1554 343.378C83.2306 343.5 81.6841 345.45 79.7186 347.712C77.7527 349.973 76.1438 351.904 76.1433 352.002C76.1429 352.1 77.008 352.946 78.065 353.882L79.9876 355.584L80.7909 354.669C81.2327 354.165 85.1532 349.661 89.5027 344.66L97.4113 335.567L96.0905 334.39C95.364 333.743 94.4383 332.966 94.0336 332.663L93.2975 332.112L89.7784 336.18C87.8424 338.418 86.1612 340.36 86.0417 340.498C85.7546 340.828 84.9847 340.177 84.6623 339.329C84.3314 338.459 84.7252 336.338 86.1188 331.486C86.7269 329.371 87.2844 327.483 87.3582 327.29C87.4791 326.975 83.2316 323.022 82.7716 323.022C82.6678 323.022 81.9941 325.342 81.2737 328.178ZM327.801 326.505C324.886 328.696 324.272 330.612 325.204 334.598C325.646 336.488 331.893 357.101 332.194 357.665C332.375 358.003 336.155 354.937 336.304 354.332C336.344 354.165 335.316 351.124 334.02 347.574C332.722 344.025 331.695 341.033 331.737 340.927C331.779 340.821 334.726 342.082 338.286 343.729C341.845 345.377 344.888 346.725 345.048 346.725C345.289 346.725 347.871 344.633 349.286 343.292C349.579 343.015 347.756 342.188 339.796 338.992C330.367 335.205 329.928 334.997 329.568 334.136C329.361 333.642 329.192 332.729 329.192 332.108C329.192 331.101 329.353 330.825 330.689 329.55L332.186 328.12L330.884 326.642L329.583 325.164L327.801 326.505ZM310.427 341.369C309.44 342.044 308.67 342.688 308.713 342.8C308.757 342.912 311.043 346.477 313.794 350.721C316.544 354.966 318.983 358.749 319.213 359.127C319.463 359.538 319.027 359.252 318.134 358.418C313.968 354.527 304.988 346.264 304.573 345.94C304.161 345.619 303.831 345.739 302.02 346.865C300.877 347.577 299.941 348.261 299.941 348.384C299.941 348.509 301.434 352.988 303.258 358.339C305.082 363.69 306.458 367.948 306.317 367.801C306.176 367.654 303.721 363.928 300.862 359.521C298.003 355.114 295.54 351.472 295.388 351.427C295.08 351.336 291.394 353.648 291.389 353.935C291.385 354.209 305.46 375.791 305.7 375.877C305.965 375.972 311.872 372.184 312.163 371.731C312.292 371.533 311.186 367.826 309.493 362.775C307.904 358.036 306.701 354.218 306.819 354.291C306.937 354.364 310.052 357.144 313.742 360.469L320.451 366.515L322.683 365.075C323.91 364.283 325.379 363.334 325.946 362.966C326.513 362.598 326.979 362.192 326.981 362.063C326.988 361.59 312.847 340.11 312.539 340.126C312.364 340.135 311.414 340.694 310.427 341.369ZM110.265 350.987C108.787 353.029 107.46 354.772 107.316 354.861C107.173 354.949 105.843 354.162 104.361 353.11C100.304 350.23 99.0249 349.653 96.7014 349.653C94.3369 349.653 92.4614 350.507 90.903 352.295C87.7234 355.94 87.6396 360.376 90.6945 363.313C92.0339 364.601 101.559 371.567 101.846 371.468C102.119 371.373 117.26 350.586 117.26 350.305C117.26 350.067 113.491 347.276 113.168 347.276C113.049 347.276 111.743 348.946 110.265 350.987ZM116.466 364.109C112.976 370.662 110.396 375.807 110.533 375.939C110.666 376.068 111.707 376.673 112.846 377.285L114.917 378.396L123.554 373.278C128.304 370.463 132.24 368.209 132.299 368.269C132.359 368.328 130.626 371.722 128.447 375.81C126.094 380.227 124.581 383.359 124.719 383.526C125.02 383.893 128.808 385.726 128.941 385.569C129.23 385.228 141.299 362.378 141.221 362.32C140.855 362.047 136.766 359.954 136.599 359.954C136.483 359.954 132.554 362.181 127.868 364.902C123.183 367.623 119.315 369.816 119.274 369.775C119.232 369.734 120.935 366.437 123.058 362.448C125.181 358.459 126.918 355.097 126.918 354.976C126.918 354.791 123.056 352.512 122.745 352.513C122.688 352.513 119.862 357.732 116.466 364.109ZM96.6605 355.025C95.3092 355.406 94.0798 356.983 94.0798 358.337C94.0798 359.976 94.7531 360.873 97.5808 362.996L100.116 364.899L102.34 361.875L104.565 358.85L102.841 357.582C99.5135 355.135 98.2003 354.592 96.6605 355.025ZM225.774 390.145L224.727 392.222L223.402 390.42C222.674 389.429 222.008 388.618 221.922 388.618C221.835 388.618 221.218 389.066 220.55 389.613L219.335 390.607L221.021 392.132C221.949 392.97 222.607 393.749 222.484 393.863C222.361 393.977 221.515 394.275 220.604 394.527C219.694 394.777 218.802 395.032 218.623 395.092C218.266 395.212 219.318 398.263 219.716 398.265C219.834 398.265 220.808 397.769 221.879 397.162C222.951 396.556 223.847 396.06 223.872 396.059C223.896 396.059 223.876 397.113 223.827 398.402L223.737 400.745H225.414C227.339 400.745 227.3 400.829 226.699 397.989C226.491 397.004 226.35 396.165 226.386 396.125C226.423 396.085 227.281 396.365 228.295 396.745C229.308 397.126 230.254 397.438 230.396 397.438C230.632 397.438 231.061 396.176 231.28 394.838C231.372 394.273 230.97 394.132 228.107 393.728L226.779 393.541L227.973 392.113C230.072 389.604 230.023 389.89 228.52 388.927C227.782 388.454 227.098 388.067 227 388.067C226.901 388.067 226.349 389.002 225.774 390.145Z" fill="#008BD0"/>
</svg>
